<svg
	width="185px" height="24px"
	viewBox="0 0 185 24"
	version="1.1"
	xmlns="http://www.w3.org/2000/svg"
	xmlns:xlink="http://www.w3.org/1999/xlink"
>
    <path d="M13.792,5.92 L16.416,2.656 C14.144,0.928 11.872,0 8.992,0 C5.28,0 1.664,2.016 1.664,6.272 C1.664,10.56 4.928,11.84 7.84,12.928 C10.112,13.76 12.16,14.496 12.16,16.416 C12.16,18.4 10.4,19.264 8.608,19.264 C6.272,19.264 4.864,18.208 3.04,16.448 L0,19.424 C2.432,21.856 5.12,23.168 8.576,23.168 C12.48,23.168 17.056,21.088 17.056,16.224 C17.056,11.52 13.248,10.048 10.08,8.96 C8.352,8.352 6.24,7.872 6.24,6.144 C6.24,4.672 7.616,3.904 9.152,3.904 C10.88,3.904 12.544,4.864 13.792,5.92 Z M31.52,17.984 C30.56,18.912 29.536,19.264 28.288,19.264 C25.888,19.264 24,17.184 24,14.368 C24,11.68 25.792,9.472 28.352,9.472 C29.664,9.472 30.688,9.952 31.616,10.816 L33.952,7.648 C32.288,6.272 30.336,5.568 28.032,5.568 C22.912,5.568 19.36,9.472 19.36,14.368 C19.36,19.584 22.944,23.168 27.904,23.168 C30.304,23.168 32.288,22.56 33.952,21.088 L31.52,17.984 Z M40.8,5.952 L36.864,5.952 L36.864,22.784 L41.408,22.784 L41.408,11.392 C42.08,10.272 43.264,9.536 44.576,9.536 C45.152,9.536 45.696,9.664 46.176,9.92 L47.264,5.952 C46.656,5.728 45.92,5.568 45.088,5.568 C43.424,5.568 42.112,6.624 41.152,8.192 L40.8,5.952 Z M56.512,5.568 C51.36,5.568 47.68,9.408 47.68,14.368 C47.68,19.328 51.36,23.168 56.512,23.168 C61.632,23.168 65.312,19.328 65.312,14.368 C65.312,9.408 61.632,5.568 56.512,5.568 Z M60.672,14.368 C60.672,17.12 59.008,19.264 56.512,19.264 C54.016,19.264 52.32,17.12 52.32,14.368 C52.32,11.616 54.016,9.472 56.512,9.472 C59.008,9.472 60.672,11.616 60.672,14.368 Z M73.12,0.384 L68.576,0.384 L68.576,22.784 L73.12,22.784 L73.12,0.384 Z M82.08,0.384 L77.536,0.384 L77.536,22.784 L82.08,22.784 L82.08,0.384 Z M87.784,0.384 L87.784,22.784 L92.36,22.784 L92.36,13.856 L93.16,13.856 L99.304,22.784 L105.064,22.784 C103.528,20.704 100.2,16.128 98.216,13.344 C100.712,12.512 103.08,10.592 103.08,7.104 C103.08,2.24 98.504,0.384 94.888,0.384 L87.784,0.384 Z M92.36,4.256 L94.76,4.256 C96.808,4.256 98.184,5.44 98.184,7.2 C98.184,9.152 96.456,9.984 94.152,9.984 L92.36,9.984 L92.36,4.256 Z M121.96,15.488 C122.088,14.816 122.184,14.016 122.184,13.344 C122.184,8.864 118.728,5.568 114.056,5.568 C109.224,5.568 105.512,9.472 105.512,14.56 C105.512,19.616 108.936,23.168 114.024,23.168 C117.64,23.168 119.784,21.824 121.704,19.04 L118.728,17.024 C117.64,18.624 116.52,19.52 114.344,19.52 C111.944,19.52 110.44,17.792 110.12,15.488 L121.96,15.488 Z M110.344,12.384 C110.824,10.496 112.008,9.12 114.184,9.12 C116.04,9.12 117.448,10.368 117.544,12.384 L110.344,12.384 Z M135.336,5.952 L131.912,16.32 L131.848,16.32 L128.456,5.952 L123.432,5.952 L129.768,22.784 L133.48,22.784 L140.392,5.952 L135.336,5.952 Z M157.864,15.488 C157.992,14.816 158.088,14.016 158.088,13.344 C158.088,8.864 154.632,5.568 149.96,5.568 C145.128,5.568 141.416,9.472 141.416,14.56 C141.416,19.616 144.84,23.168 149.928,23.168 C153.544,23.168 155.688,21.824 157.608,19.04 L154.632,17.024 C153.544,18.624 152.424,19.52 150.248,19.52 C147.848,19.52 146.344,17.792 146.024,15.488 L157.864,15.488 Z M146.248,12.384 C146.728,10.496 147.912,9.12 150.088,9.12 C151.944,9.12 153.352,10.368 153.448,12.384 L146.248,12.384 Z M175.528,22.784 L175.528,12.672 C175.528,8.288 173.256,5.568 168.584,5.568 C166.088,5.568 163.496,6.24 161.352,7.296 L162.568,10.56 C164.04,9.792 165.736,9.088 167.656,9.088 C170.12,9.088 170.984,10.368 170.984,12.48 L170.984,12.736 C169.928,12.512 168.872,12.384 167.944,12.384 C164.456,12.384 160.616,13.696 160.616,17.824 C160.616,21.28 163.528,23.168 166.664,23.168 C168.456,23.168 170.152,22.688 171.24,21.344 L171.592,22.784 L175.528,22.784 Z M170.984,18.56 C170.024,19.424 168.936,20 167.624,20 C166.28,20 165.064,19.232 165.064,17.76 C165.064,15.776 167.016,15.168 168.68,15.168 C169.384,15.168 170.12,15.264 170.984,15.456 L170.984,18.56 Z M184.328,0.384 L179.784,0.384 L179.784,22.784 L184.328,22.784 L184.328,0.384 Z" stroke="none" fill="#FFFFFF" fill-rule="evenodd"></path>
</svg>
